<?xml version="1.0" encoding="UTF-8"?><svg id="a" xmlns="http://www.w3.org/2000/svg" viewBox="0 0 192.16 136.03"><defs><style>.b{fill:#816ea6;}</style></defs><path class="b" d="M96.48,28.02c-27.17,0-54.33,.03-81.49-.02C6.19,27.98,.03,22.04,.09,13.92,.15,5.99,6.21,.08,14.69,.05c19.17-.08,38.33-.03,57.5-.03C107.01,.02,141.85,0,176.68,.03c9.22,0,15.45,5.79,15.4,14.09-.06,8.1-6.23,13.87-15.1,13.88-26.83,.05-53.66,.02-80.49,.02Z"/><path class="b" d="M96.15,56.02c27,0,54-.05,81,.03,11.12,.03,18.16,10.32,13.62,19.84-2.71,5.69-7.49,8.17-13.75,8.15-17.17-.05-34.33-.02-51.5-.02-36.83,0-73.66,.04-110.49-.03-11.12-.02-18.16-10.32-13.62-19.84,2.82-5.9,7.81-8.19,14.25-8.17,26.83,.08,53.66,.03,80.49,.03Z"/><path class="b" d="M95.82,136.02c-27.49,0-54.98,.04-82.48-.02-10.47-.02-16.57-9.62-11.56-18.05,2.65-4.46,6.78-5.97,11.84-5.96,31.16,.07,62.32,.03,93.47,.03,23.99,0,47.99-.03,71.98,.02,7.17,.01,12.21,4.26,12.94,10.62,.85,7.35-4.7,13.3-12.72,13.33-20.33,.08-40.65,.03-60.98,.03-7.5,0-15,0-22.49,0Z"/></svg>