<?xml version="1.0" encoding="UTF-8"?><svg id="a" xmlns="http://www.w3.org/2000/svg" viewBox="0 0 182 202"><defs><style>.b{fill:#fff;}.c{fill:#c9c991;}.d{fill:#d7d9ae;}</style></defs><path class="b" d="M28.38,17.91c1.93,0,1.93-3,0-3s-1.93,3,0,3h0Z"/><g><path class="c" d="M10.22,2c6.01-.69-21.14,125.89,88.49,118.54,0,0,20.84-101.19-88.49-118.54Z"/><path class="d" d="M27.09,28.77S6.38,129.21,99.1,120.66c0,0,14.8-80.14-72.02-91.89Z"/><path class="d" d="M174.92,59.99s-10.18,85.73-76.12,59.94c0,0,9.38-68.05,76.12-59.94Z"/><path class="d" d="M96,120c.66,8.78,6.01,60.38-4.7,80l21.7-2s-6.44-71.42-9-79c-1.53-4.55-5.34-3.46-6-2-.5,1.09-2.09,1.8-2,3Z"/></g></svg>