<?xml version="1.0" encoding="UTF-8"?><svg id="a" xmlns="http://www.w3.org/2000/svg" xmlns:xlink="http://www.w3.org/1999/xlink" viewBox="0 0 182 202"><defs><style>.c{fill:none;}.d{fill:#f3f1f6;}.e{fill:#f6f5f9;}.f{fill:#f7f6f9;}.g{fill:#f2f0f6;}.h{fill:#f9f8fb;}.i{fill:#f8f7fa;}.j{fill:#eeecf3;}.k{fill:#eeebf3;}.l{fill:#ebe8f1;}.m{fill:#f0eef4;}.n{fill:#eae7f0;}.o{fill:#e9e6f0;}.p{fill:#f4f2f7;}.q{fill:#f5f3f8;}.r{fill:#f5f4f8;}.s{fill:#fcfcfd;}.t{fill:#e7e3ee;}.u{fill:#e7e4ee;}.v{fill:#e6e2ed;}.w{fill:#e3dfeb;}.x{fill:#edeaf2;}.y{fill:#fff;}.a`{fill:#e8e5ef;}.aa{fill:#f1eff5;}.ab{fill:#ece9f1;}.ac{fill:#fefefe;}.ad{fill:#fbfafc;}.ae{fill:#e5e1ec;}.af{fill:#faf9fb;}.ag{fill:#fcfbfd;}.ah{fill:#efedf4;}.ai{fill:#e4e0ec;}.aj{fill:#fdfdfe;}.ak{fill:#816ea6;}.al{fill:#826fa7;}.am{fill:#9787b5;}.an{fill:#9989b7;}.ao{fill:#9888b6;}.ap{fill:#8b79ad;}.aq{fill:#9c8db9;}.ar{fill:#9281b2;}.as{fill:#9f90bb;}.at{fill:#a091bc;}.au{fill:#8674aa;}.av{fill:#8573a9;}.aw{fill:#b5a9ca;}.ax{fill:#b6abcc;}.ay{fill:#b6aacb;}.b`{fill:#b8adcd;}.ba{fill:#9d8eba;}.bb{fill:#8a78ac;}.bc{fill:#9e8fba;}.bd{fill:#a193bd;}.be{fill:#a192bc;}.bf{fill:#8d7caf;}.bg{fill:#907fb1;}.bh{fill:#c2b9d4;}.bi{fill:#9382b2;}.bj{fill:#9383b3;}.bk{fill:#8e7daf;}.bl{fill:#b4a8ca;}.bm{fill:#9180b1;}.bn{fill:#c1b8d3;}.bo{fill:#baafce;}.bp{fill:#8c7bae;}.bq{fill:#8c7aad;}.br{fill:#b9aece;}.bs{fill:#8f7eb0;}.bt{fill:#b7accc;}.bu{fill:#8572a8;}.bv{fill:#cec7dc;}.bw{fill:#cdc6dc;}.bx{fill:#a597bf;}.by{fill:#a99cc2;}.c`{fill:#b3a7c9;}.ca{fill:#a89ac1;}.cb{fill:#bfb5d2;}.cc{fill:#bbb0cf;}.cd{fill:#ac9fc4;}.ce{fill:#b1a5c8;}.cf{fill:#d7d1e3;}.cg{fill:#aea1c6;}.ch{fill:#b2a6c9;}.ci{fill:#a799c1;}.cj{fill:#a496bf;}.ck{fill:#afa3c7;}.cl{fill:#afa2c6;}.cm{fill:#bdb3d1;}.cn{fill:#bdb2d0;}.co{fill:#bcb1cf;}.cp{fill:#aa9dc3;}.cq{fill:#a698c0;}.cr{fill:#beb4d1;}.cs{fill:#ab9ec4;}.ct{fill:#c0b7d3;}.cu{fill:#ccc5db;}.cv{fill:#c6bed7;}.cw{fill:#cac2d9;}.cx{fill:#c9c1d9;}.cy{fill:#d0c9de;}.d`{fill:#cfc8dd;}.da{fill:#ded9e8;}.db{fill:#ddd8e7;}.dc{fill:#cbc3da;}.dd{fill:#cbc4db;}.de{fill:#d2cbdf;}.df{fill:#d2ccdf;}.dg{fill:#d1cade;}.dh{fill:#c3bad4;}.di{fill:#c4bcd6;}.dj{fill:#c4bbd5;}.dk{fill:#d4cee1;}.dl{fill:#dcd7e6;}.dm{fill:#dbd6e6;}.dn{fill:#d3cde0;}.do{fill:#dad5e5;}.dp{fill:#d9d4e4;}.dq{fill:#d9d3e4;}.dr{fill:#b0a4c7;}.ds{fill:#e0dbe9;}.dt{fill:#e0dce9;}.du{fill:#d8d2e3;}.dv{fill:#ada0c5;}.dw{fill:#c5bdd6;}.dx{fill:#e2deeb;}.dy{fill:#c8c0d8;}.e`{fill:#e1ddea;}.ea{fill:#c7bfd7;}.eb{fill:#dfdae8;}.ec{fill:#d6d0e2;}.ed{fill:#d5cfe1;}.ee{fill:#a89bc2;}.ef{fill:#a395be;}.eg{fill:#9484b4;}.eh{fill:#9b8cb9;}.ei{fill:#a294bd;}.ej{fill:#9585b4;}.ek{fill:#9686b5;}.el{fill:#8977ac;}.em{fill:#8775aa;}.en{fill:#8876ab;}.eo{fill:#9a8bb8;}.ep{fill:#9a8ab7;}.eq{fill:#8471a8;}.er{fill:#8370a7;}.es{clip-path:url(#b);}</style><clipPath id="b"><path class="c" d="M178.81,96.67c3.35,25.53-4.98,52.55-24.89,72.45-33.59,33.58-87.41,34.22-120.21,1.41C2.19,139,1.57,88.07,31.38,54.34,75.92,13.54,106.04,22.81,106.04,22.81c-39.55,1.81-52.67,21.71-72.32,36.64-1.2,.91-.56,3.67,.92,3.94,30.41,5.44,54.45-6.19,71.23-20.08,13.05-10.8,29.69-16.74,37.19-19.04,1.52-.47,1.77-2.51,.41-3.34C65.95-25.84,35.1,25.11,26.6,49.74c-33.26,34.86-32.79,90.07,1.46,124.32,34.76,34.76,91.11,34.76,125.86,0,21.07-21.07,29.37-50.08,24.89-77.4Z"/></clipPath></defs><g class="es"><rect class="ak" x="-6.66" y="-25.84" width="189.95" height="234.67"/><path class="ak" d="M184.29,95.62v93.04h3.1c-1.5,.72-3.03,1.41-4.57,2.07-12.35,5.22-25.93,8.11-40.18,8.11-57.01,0-103.22-46.21-103.22-103.22S85.63-7.6,142.64-7.6c14.25,0,27.83,2.89,40.18,8.11,1.54,.65,3.07,1.34,4.57,2.07h-3.1V95.62Z"/><path class="al" d="M184.29,95.62v92.45h2.81c-1.49,.72-3.01,1.41-4.54,2.05-12.27,5.19-25.76,8.06-39.92,8.06-56.64,0-102.56-45.92-102.56-102.56S86-6.94,142.64-6.94c14.16,0,27.65,2.87,39.92,8.06,1.53,.65,3.05,1.33,4.54,2.05h-2.81V95.62Z"/><path class="er" d="M184.29,95.62v89.6h6.92c-2.89,1.57-5.86,3-8.91,4.29-12.19,5.16-25.6,8.01-39.67,8.01-56.28,0-101.9-45.62-101.9-101.9S86.36-6.28,142.64-6.28c14.07,0,27.47,2.85,39.67,8.01,3.05,1.29,6.02,2.72,8.91,4.29h-6.92V95.62Z"/><path class="eq" d="M184.29,95.62v89.02h6.61c-2.87,1.56-5.82,2.98-8.85,4.26-12.11,5.12-25.43,7.96-39.41,7.96-55.92,0-101.24-45.33-101.24-101.24S86.72-5.62,142.64-5.62c13.98,0,27.3,2.83,39.41,7.96,3.03,1.28,5.98,2.7,8.85,4.26h-6.61V95.62Z"/><path class="bu" d="M184.29,95.62v88.45h6.29c-2.85,1.55-5.78,2.96-8.79,4.24-12.03,5.09-25.26,7.9-39.15,7.9-55.55,0-100.59-45.03-100.59-100.59S87.09-4.96,142.64-4.96c13.89,0,27.12,2.81,39.15,7.9,3.01,1.27,5.94,2.69,8.79,4.24h-6.29V95.62Z"/><path class="av" d="M184.29,95.62v87.87h5.98c-2.83,1.54-5.75,2.94-8.73,4.21-11.95,5.06-25.1,7.85-38.9,7.85-55.19,0-99.93-44.74-99.93-99.93S87.45-4.3,142.64-4.3c13.8,0,26.94,2.8,38.9,7.85,2.99,1.26,5.9,2.67,8.73,4.21h-5.98V95.62Z"/><path class="au" d="M184.29,95.62v87.29h5.66c-2.81,1.53-5.71,2.92-8.68,4.18-11.88,5.02-24.93,7.8-38.64,7.8-54.82,0-99.27-44.44-99.27-99.27S87.81-3.64,142.64-3.64c13.71,0,26.76,2.78,38.64,7.8,2.97,1.26,5.86,2.65,8.68,4.18h-5.66V95.62Z"/><path class="em" d="M184.29,95.62v86.71h5.35c-2.79,1.52-5.67,2.9-8.62,4.15-11.8,4.99-24.77,7.75-38.38,7.75-54.46,0-98.61-44.15-98.61-98.61S88.18-2.99,142.64-2.99c13.61,0,26.59,2.76,38.38,7.75,2.95,1.25,5.83,2.63,8.62,4.15h-5.35V95.62Z"/><path class="en" d="M184.29,95.62v86.13h5.04c-2.78,1.51-5.63,2.89-8.56,4.12-11.72,4.96-24.6,7.7-38.13,7.7-54.1,0-97.95-43.85-97.95-97.95S88.54-2.33,142.64-2.33c13.52,0,26.41,2.74,38.13,7.7,2.93,1.24,5.79,2.62,8.56,4.12h-5.04V95.62Z"/><path class="el" d="M184.29,95.62v85.55h4.72c-2.76,1.5-5.59,2.87-8.5,4.1-11.64,4.92-24.44,7.65-37.87,7.65-53.73,0-97.29-43.56-97.29-97.29S88.91-1.67,142.64-1.67c13.43,0,26.23,2.72,37.87,7.65,2.91,1.23,5.75,2.6,8.5,4.1h-4.72V95.62Z"/><path class="bb" d="M184.29,95.62v84.97h4.41c-2.74,1.49-5.56,2.85-8.45,4.07-11.56,4.89-24.27,7.59-37.61,7.59-53.37,0-96.63-43.26-96.63-96.63S89.27-1.01,142.64-1.01c13.34,0,26.05,2.7,37.61,7.59,2.89,1.22,5.71,2.58,8.45,4.07h-4.41V95.62Z"/><path class="ap" d="M184.29,95.62v84.39h4.09c-2.72,1.48-5.52,2.83-8.39,4.04-11.48,4.86-24.11,7.54-37.36,7.54-53,0-95.97-42.97-95.97-95.97S89.63-.35,142.64-.35c13.25,0,25.87,2.69,37.36,7.54,2.87,1.21,5.67,2.56,8.39,4.04h-4.09V95.62Z"/><path class="bq" d="M184.29,95.62v83.81h3.78c-2.7,1.47-5.48,2.81-8.33,4.01-11.4,4.82-23.94,7.49-37.1,7.49-52.64,0-95.31-42.67-95.31-95.31S90,.31,142.64,.31c13.16,0,25.7,2.67,37.1,7.49,2.85,1.21,5.63,2.55,8.33,4.01h-3.78V95.62Z"/><path class="bp" d="M184.29,95.62v83.23h3.47c-2.68,1.46-5.44,2.79-8.27,3.99-11.32,4.79-23.77,7.44-36.84,7.44-52.28,0-94.65-42.38-94.65-94.65S90.36,.97,142.64,.97c13.07,0,25.52,2.65,36.84,7.44,2.83,1.2,5.59,2.53,8.27,3.99h-3.47V95.62Z"/><path class="bf" d="M184.29,95.62v82.65h3.15c-2.66,1.45-5.41,2.77-8.22,3.96-11.25,4.76-23.61,7.39-36.59,7.39-51.91,0-94-42.08-94-94S90.73,1.63,142.64,1.63c12.98,0,25.34,2.63,36.59,7.39,2.81,1.19,5.55,2.51,8.22,3.96h-3.15V95.62Z"/><path class="bk" d="M184.29,95.62v82.07h2.84c-2.65,1.44-5.37,2.75-8.16,3.93-11.17,4.72-23.44,7.33-36.33,7.33-51.55,0-93.34-41.79-93.34-93.34S91.09,2.29,142.64,2.29c12.89,0,25.16,2.61,36.33,7.33,2.79,1.18,5.51,2.49,8.16,3.93h-2.84V95.62Z"/><path class="bs" d="M184.29,95.62v81.49h2.52c-2.63,1.43-5.33,2.73-8.1,3.9-11.09,4.69-23.28,7.28-36.07,7.28-51.18,0-92.68-41.49-92.68-92.68S91.45,2.94,142.64,2.94c12.8,0,24.99,2.59,36.07,7.28,2.77,1.17,5.47,2.48,8.1,3.9h-2.52V95.62Z"/><path class="bg" d="M184.29,95.62v80.91h2.21c-2.61,1.42-5.29,2.71-8.04,3.87-11.01,4.66-23.11,7.23-35.82,7.23-50.82,0-92.02-41.2-92.02-92.02S91.82,3.6,142.64,3.6c12.71,0,24.81,2.57,35.82,7.23,2.75,1.16,5.44,2.46,8.04,3.87h-2.21V95.62Z"/><path class="bm" d="M184.29,95.62v80.33h1.89c-2.59,1.41-5.25,2.69-7.99,3.85-10.93,4.62-22.95,7.18-35.56,7.18-50.46,0-91.36-40.9-91.36-91.36S92.18,4.26,142.64,4.26c12.61,0,24.63,2.56,35.56,7.18,2.73,1.16,5.4,2.44,7.99,3.85h-1.89V95.62Z"/><path class="ar" d="M184.29,95.62v79.75h1.58c-2.57,1.4-5.22,2.67-7.93,3.82-10.85,4.59-22.78,7.13-35.3,7.13-50.09,0-90.7-40.61-90.7-90.7S92.55,4.92,142.64,4.92c12.52,0,24.45,2.54,35.3,7.13,2.71,1.15,5.36,2.42,7.93,3.82h-1.58V95.62Z"/><path class="bi" d="M184.29,95.62v79.17h1.27c-2.55,1.39-5.18,2.65-7.87,3.79-10.77,4.56-22.62,7.08-35.05,7.08-49.73,0-90.04-40.31-90.04-90.04S92.91,5.58,142.64,5.58c12.43,0,24.28,2.52,35.05,7.08,2.69,1.14,5.32,2.41,7.87,3.79h-1.27V95.62Z"/><path class="bj" d="M184.29,95.62v78.59h.95c-2.53,1.38-5.14,2.63-7.81,3.76-10.69,4.52-22.45,7.02-34.79,7.02-49.36,0-89.38-40.02-89.38-89.38S93.27,6.24,142.64,6.24c12.34,0,24.1,2.5,34.79,7.02,2.67,1.13,5.28,2.39,7.81,3.76h-.95V95.62Z"/><path class="eg" d="M184.29,95.62v78.02h.64c-2.51,1.37-5.1,2.61-7.76,3.74-10.61,4.49-22.29,6.97-34.54,6.97-49,0-88.72-39.72-88.72-88.72S93.64,6.9,142.64,6.9c12.25,0,23.92,2.48,34.54,6.97,2.65,1.12,5.24,2.37,7.76,3.74h-.64V95.62Z"/><path class="ej" d="M184.29,95.62v77.44h.32c-2.5,1.36-5.06,2.59-7.7,3.71-10.54,4.46-22.12,6.92-34.28,6.92-48.64,0-88.06-39.43-88.06-88.06S94,7.56,142.64,7.56c12.16,0,23.74,2.46,34.28,6.92,2.63,1.11,5.2,2.35,7.7,3.71h-.32V95.62Z"/><path class="ek" d="M184.29,95.62v76.86h0c-2.48,1.35-5.03,2.57-7.64,3.68-10.46,4.42-21.95,6.87-34.02,6.87-48.27,0-87.41-39.13-87.41-87.41S94.37,8.22,142.64,8.22c12.07,0,23.57,2.45,34.02,6.87,2.61,1.11,5.16,2.34,7.64,3.68h0V95.62Z"/><path class="am" d="M184.29,95.62v71.93h6.85c-4.61,3.12-9.55,5.8-14.74,8-10.38,4.39-21.79,6.82-33.77,6.82-47.91,0-86.75-38.84-86.75-86.75S94.73,8.88,142.64,8.88c11.98,0,23.39,2.43,33.77,6.82,5.19,2.19,10.12,4.88,14.74,8h-6.85V95.62Z"/><path class="ao" d="M184.29,95.62v71.39h6.48c-4.58,3.09-9.47,5.76-14.62,7.94-10.3,4.36-21.62,6.77-33.51,6.77-47.55,0-86.09-38.54-86.09-86.09S95.09,9.53,142.64,9.53c11.89,0,23.21,2.41,33.51,6.77,5.15,2.18,10.04,4.84,14.62,7.94h-6.48V95.62Z"/><path class="an" d="M184.29,95.62v70.84h6.11c-4.54,3.07-9.4,5.72-14.51,7.88-10.22,4.32-21.46,6.71-33.25,6.71-47.18,0-85.43-38.25-85.43-85.43S95.46,10.19,142.64,10.19c11.8,0,23.03,2.39,33.25,6.71,5.11,2.16,9.97,4.81,14.51,7.88h-6.11V95.62Z"/><path class="ep" d="M184.29,95.62v70.29h5.74c-4.51,3.05-9.33,5.67-14.4,7.82-10.14,4.29-21.29,6.66-33,6.66-46.82,0-84.77-37.95-84.77-84.77S95.82,10.85,142.64,10.85c11.7,0,22.85,2.37,33,6.66,5.07,2.14,9.89,4.77,14.4,7.82h-5.74V95.62Z"/><path class="eo" d="M184.29,95.62v69.75h5.37c-4.47,3.02-9.26,5.63-14.29,7.75-10.06,4.26-21.13,6.61-32.74,6.61-46.45,0-84.11-37.66-84.11-84.11S96.19,11.51,142.64,11.51c11.61,0,22.68,2.35,32.74,6.61,5.03,2.13,9.81,4.73,14.29,7.75h-5.37V95.62Z"/><path class="eh" d="M184.29,95.62v69.2h5.01c-4.44,3-9.18,5.58-14.18,7.69-9.98,4.22-20.96,6.56-32.48,6.56-46.09,0-83.45-37.36-83.45-83.45S96.55,12.17,142.64,12.17c11.52,0,22.5,2.34,32.48,6.56,4.99,2.11,9.74,4.69,14.18,7.69h-5.01V95.62Z"/><path class="aq" d="M184.29,95.62v68.65h4.64c-4.4,2.98-9.11,5.54-14.06,7.63-9.91,4.19-20.8,6.51-32.23,6.51-45.73,0-82.79-37.07-82.79-82.79S96.91,12.83,142.64,12.83c11.43,0,22.32,2.32,32.23,6.51,4.95,2.09,9.66,4.66,14.06,7.63h-4.64V95.62Z"/><path class="ba" d="M184.29,95.62v68.11h4.27c-4.37,2.95-9.04,5.49-13.95,7.57-9.83,4.16-20.63,6.45-31.97,6.45-45.36,0-82.13-36.77-82.13-82.13S97.28,13.49,142.64,13.49c11.34,0,22.14,2.3,31.97,6.45,4.91,2.08,9.58,4.62,13.95,7.57h-4.27V95.62Z"/><path class="bc" d="M184.29,95.62v67.56h3.9c-4.33,2.93-8.97,5.45-13.84,7.51-9.75,4.12-20.46,6.4-31.71,6.4-45,0-81.48-36.48-81.48-81.48S97.64,14.15,142.64,14.15c11.25,0,21.97,2.28,31.71,6.4,4.87,2.06,9.51,4.58,13.84,7.51h-3.9V95.62Z"/><path class="as" d="M184.29,95.62v67.01h3.53c-4.3,2.9-8.89,5.41-13.73,7.45-9.67,4.09-20.3,6.35-31.46,6.35-44.63,0-80.82-36.18-80.82-80.82S98,14.81,142.64,14.81c11.16,0,21.79,2.26,31.46,6.35,4.83,2.04,9.43,4.55,13.73,7.45h-3.53V95.62Z"/><path class="at" d="M184.29,95.62v66.47h3.16c-4.26,2.88-8.82,5.36-13.62,7.39-9.59,4.06-20.13,6.3-31.2,6.3-44.27,0-80.16-35.89-80.16-80.16S98.37,15.47,142.64,15.47c11.07,0,21.61,2.24,31.2,6.3,4.79,2.03,9.35,4.51,13.62,7.39h-3.16V95.62Z"/><path class="be" d="M184.29,95.62v65.92h2.8c-4.23,2.86-8.75,5.32-13.5,7.33-9.51,4.02-19.97,6.25-30.94,6.25-43.91,0-79.5-35.59-79.5-79.5S98.73,16.12,142.64,16.12c10.98,0,21.43,2.22,30.94,6.25,4.76,2.01,9.27,4.47,13.5,7.33h-2.8V95.62Z"/><path class="bd" d="M184.29,95.62v65.37h2.43c-4.19,2.83-8.68,5.27-13.39,7.27-9.43,3.99-19.8,6.2-30.69,6.2-43.54,0-78.84-35.3-78.84-78.84S99.1,16.78,142.64,16.78c10.89,0,21.26,2.21,30.69,6.2,4.72,1.99,9.2,4.44,13.39,7.27h-2.43V95.62Z"/><path class="ei" d="M184.29,95.62v64.83h2.06c-4.16,2.81-8.6,5.23-13.28,7.21-9.35,3.96-19.64,6.14-30.43,6.14-43.18,0-78.18-35-78.18-78.18S99.46,17.44,142.64,17.44c10.79,0,21.08,2.19,30.43,6.14,4.68,1.98,9.12,4.4,13.28,7.21h-2.06V95.62Z"/><path class="ef" d="M184.29,95.62v64.28h1.69c-4.12,2.79-8.53,5.19-13.17,7.15-9.27,3.92-19.47,6.09-30.17,6.09-42.81,0-77.52-34.71-77.52-77.52S99.82,18.1,142.64,18.1c10.7,0,20.9,2.17,30.17,6.09,4.64,1.96,9.04,4.36,13.17,7.15h-1.69V95.62Z"/><path class="cj" d="M184.29,95.62v63.74h1.32c-4.09,2.76-8.46,5.14-13.06,7.09-9.2,3.89-19.31,6.04-29.92,6.04-42.45,0-76.86-34.41-76.86-76.86S100.19,18.76,142.64,18.76c10.61,0,20.72,2.15,29.92,6.04,4.6,1.94,8.97,4.32,13.06,7.09h-1.32v63.74Z"/><path class="bx" d="M184.29,95.62v63.19h.95c-4.05,2.74-8.39,5.1-12.94,7.03-9.12,3.86-19.14,5.99-29.66,5.99-42.09,0-76.2-34.12-76.2-76.2S100.55,19.42,142.64,19.42c10.52,0,20.55,2.13,29.66,5.99,4.56,1.93,8.89,4.29,12.94,7.03h-.95v63.19Z"/><path class="cq" d="M184.29,95.62v62.64h.58c-4.02,2.72-8.31,5.05-12.83,6.97-9.04,3.82-18.97,5.94-29.41,5.94-41.72,0-75.54-33.82-75.54-75.54S100.92,20.08,142.64,20.08c10.43,0,20.37,2.11,29.41,5.94,4.52,1.91,8.81,4.25,12.83,6.97h-.58v62.64Z"/><path class="ci" d="M184.29,95.62v62.1h.22c-3.98,2.69-8.24,5.01-12.72,6.9-8.96,3.79-18.81,5.88-29.15,5.88-41.36,0-74.89-33.53-74.89-74.89S101.28,20.74,142.64,20.74c10.34,0,20.19,2.1,29.15,5.88,4.48,1.89,8.74,4.21,12.72,6.9h-.22v62.1Z"/><path class="ca" d="M184.29,95.62v57.28h5.56c-1.83,1.51-3.74,2.94-5.71,4.27-3.95,2.67-8.17,4.97-12.61,6.84-8.88,3.76-18.64,5.83-28.89,5.83-40.99,0-74.23-33.23-74.23-74.23S101.64,21.4,142.64,21.4c10.25,0,20.01,2.08,28.89,5.83,4.44,1.88,8.66,4.18,12.61,6.84,1.97,1.33,3.88,2.76,5.71,4.27h-5.56v57.28Z"/><path class="ee" d="M184.29,95.62v56.77h5.14c-1.82,1.5-3.71,2.91-5.66,4.24-3.91,2.64-8.1,4.92-12.5,6.78-8.8,3.72-18.48,5.78-28.64,5.78-40.63,0-73.57-32.94-73.57-73.57S102.01,22.05,142.64,22.05c10.16,0,19.83,2.06,28.64,5.78,4.4,1.86,8.58,4.14,12.5,6.78,1.96,1.32,3.85,2.74,5.66,4.24h-5.14v56.77Z"/><path class="by" d="M184.29,95.62v56.26h4.72c-1.8,1.49-3.67,2.89-5.61,4.2-3.88,2.62-8.02,4.88-12.38,6.72-8.72,3.69-18.31,5.73-28.38,5.73-40.27,0-72.91-32.64-72.91-72.91S102.37,22.71,142.64,22.71c10.07,0,19.66,2.04,28.38,5.73,4.36,1.84,8.51,4.1,12.38,6.72,1.94,1.31,3.81,2.71,5.61,4.2h-4.72v56.26Z"/><path class="cp" d="M184.29,95.62v55.75h4.3c-1.78,1.47-3.64,2.86-5.56,4.16-3.84,2.6-7.95,4.83-12.27,6.66-8.64,3.66-18.15,5.68-28.12,5.68-39.9,0-72.25-32.35-72.25-72.25S102.74,23.37,142.64,23.37c9.98,0,19.48,2.02,28.12,5.68,4.32,1.83,8.43,4.06,12.27,6.66,1.92,1.3,3.78,2.69,5.56,4.16h-4.3v55.75Z"/><path class="cs" d="M184.29,95.62v55.24h3.89c-1.77,1.46-3.61,2.83-5.51,4.12-3.81,2.57-7.88,4.79-12.16,6.6-8.57,3.62-17.98,5.63-27.87,5.63-39.54,0-71.59-32.05-71.59-71.59S103.1,24.03,142.64,24.03c9.88,0,19.3,2,27.87,5.63,4.28,1.81,8.35,4.03,12.16,6.6,1.9,1.29,3.74,2.66,5.51,4.12h-3.89v55.24Z"/><path class="cd" d="M184.29,95.62v54.73h3.47c-1.75,1.45-3.57,2.81-5.46,4.08-3.77,2.55-7.81,4.75-12.05,6.54-8.49,3.59-17.82,5.57-27.61,5.57-39.17,0-70.93-31.76-70.93-70.93S103.46,24.69,142.64,24.69c9.79,0,19.12,1.98,27.61,5.57,4.24,1.79,8.28,3.99,12.05,6.54,1.89,1.27,3.71,2.64,5.46,4.08h-3.47v54.73Z"/><path class="dv" d="M184.29,95.62v54.23h3.05c-1.74,1.43-3.54,2.78-5.41,4.05-3.74,2.53-7.73,4.7-11.94,6.48-8.41,3.56-17.65,5.52-27.35,5.52-38.81,0-70.27-31.46-70.27-70.27S103.83,25.35,142.64,25.35c9.7,0,18.95,1.97,27.35,5.52,4.2,1.78,8.2,3.95,11.94,6.48,1.87,1.26,3.67,2.61,5.41,4.05h-3.05v54.23Z"/><path class="cg" d="M184.29,95.62v53.72h2.63c-1.72,1.42-3.51,2.76-5.36,4.01-3.7,2.5-7.66,4.66-11.82,6.42-8.33,3.52-17.49,5.47-27.1,5.47-38.45,0-69.61-31.17-69.61-69.61S104.19,26.01,142.64,26.01c9.61,0,18.77,1.95,27.1,5.47,4.16,1.76,8.12,3.92,11.82,6.42,1.85,1.25,3.64,2.59,5.36,4.01h-2.63v53.72Z"/><path class="cl" d="M184.29,95.62v53.21h2.21c-1.7,1.41-3.47,2.73-5.31,3.97-3.67,2.48-7.59,4.61-11.71,6.36-8.25,3.49-17.32,5.42-26.84,5.42-38.08,0-68.96-30.87-68.96-68.96S104.56,26.67,142.64,26.67c9.52,0,18.59,1.93,26.84,5.42,4.12,1.74,8.04,3.88,11.71,6.36,1.83,1.24,3.61,2.56,5.31,3.97h-2.21v53.21Z"/><path class="ck" d="M184.29,95.62v48.29h6.64c-12.36,12.36-29.43,20-48.29,20-37.72,0-68.3-30.58-68.3-68.3S104.92,27.33,142.64,27.33c18.86,0,35.93,7.64,48.29,20h-6.64v48.29Z"/><path class="dr" d="M184.29,95.62v47.83h6.17c-12.24,12.24-29.15,19.81-47.83,19.81-37.35,0-67.64-30.28-67.64-67.64S105.28,27.99,142.64,27.99c18.68,0,35.59,7.57,47.83,19.81h-6.17v47.83Z"/><path class="ce" d="M184.29,95.62v47.36h5.71c-12.12,12.12-28.87,19.62-47.36,19.62-36.99,0-66.98-29.99-66.98-66.98S105.65,28.64,142.64,28.64c18.5,0,35.24,7.5,47.36,19.62h-5.71v47.36Z"/><path class="ch" d="M184.29,95.62v46.89h5.24c-12,12-28.58,19.42-46.89,19.42-36.63,0-66.32-29.69-66.32-66.32S106.01,29.3,142.64,29.3c18.31,0,34.89,7.42,46.89,19.42h-5.24v46.89Z"/><path class="c`" d="M184.29,95.62v46.43h4.78c-11.88,11.88-28.3,19.23-46.43,19.23-36.26,0-65.66-29.4-65.66-65.66S106.38,29.96,142.64,29.96c18.13,0,34.55,7.35,46.43,19.23h-4.78v46.43Z"/><path class="bl" d="M184.29,95.62v45.96h4.31c-11.76,11.76-28.01,19.04-45.96,19.04-35.9,0-65-29.1-65-65S106.74,30.62,142.64,30.62c17.95,0,34.2,7.28,45.96,19.04h-4.31v45.96Z"/><path class="aw" d="M184.29,95.62v45.5h3.84c-11.64,11.64-27.73,18.85-45.5,18.85-35.54,0-64.34-28.81-64.34-64.34S107.1,31.28,142.64,31.28c17.77,0,33.85,7.2,45.5,18.85h-3.84v45.5Z"/><path class="ay" d="M184.29,95.62v45.03h3.38c-11.52,11.52-27.45,18.65-45.03,18.65-35.17,0-63.68-28.51-63.68-63.68s28.51-63.68,63.68-63.68c17.59,0,33.51,7.13,45.03,18.65h-3.38v45.03Z"/><path class="ax" d="M184.29,95.62v44.56h2.91c-11.41,11.41-27.16,18.46-44.56,18.46-34.81,0-63.02-28.22-63.02-63.02s28.22-63.02,63.02-63.02c17.4,0,33.16,7.05,44.56,18.46h-2.91v44.56Z"/><path class="bt" d="M184.29,95.62v44.1h2.45c-11.29,11.29-26.88,18.27-44.1,18.27-34.44,0-62.37-27.92-62.37-62.37s27.92-62.37,62.37-62.37c17.22,0,32.81,6.98,44.1,18.27h-2.45v44.1Z"/><path class="b`" d="M184.29,95.62v43.63h1.98c-11.17,11.17-26.59,18.07-43.63,18.07-34.08,0-61.71-27.63-61.71-61.71s27.63-61.71,61.71-61.71c17.04,0,32.47,6.91,43.63,18.07h-1.98v43.63Z"/><path class="br" d="M184.29,95.62v43.17h1.51c-11.05,11.05-26.31,17.88-43.17,17.88-33.72,0-61.05-27.33-61.05-61.05s27.33-61.05,61.05-61.05c16.86,0,32.12,6.83,43.17,17.88h-1.51v43.17Z"/><path class="bo" d="M184.29,95.62v42.7h1.05c-10.93,10.93-26.03,17.69-42.7,17.69-33.35,0-60.39-27.04-60.39-60.39s27.04-60.39,60.39-60.39c16.68,0,31.77,6.76,42.7,17.69h-1.05v42.7Z"/><path class="cc" d="M184.29,95.62v42.24h.58c-10.81,10.81-25.74,17.49-42.24,17.49-32.99,0-59.73-26.74-59.73-59.73s26.74-59.73,59.73-59.73c16.49,0,31.43,6.69,42.24,17.49h-.58v42.24Z"/><path class="co" d="M184.29,95.62v41.77h.12c-10.69,10.69-25.46,17.3-41.77,17.3-32.62,0-59.07-26.45-59.07-59.07s26.45-59.07,59.07-59.07c16.31,0,31.08,6.61,41.77,17.3h-.12v41.77Z"/><path class="cn" d="M184.29,95.62v32.66h6.78c-2.1,3.11-4.49,6-7.13,8.64-10.57,10.57-25.17,17.11-41.3,17.11-32.26,0-58.41-26.15-58.41-58.41s26.15-58.41,58.41-58.41c16.13,0,30.73,6.54,41.3,17.11,2.64,2.64,5.03,5.54,7.13,8.64h-6.78v32.66Z"/><path class="cm" d="M184.29,95.62v32.29h6.24c-2.08,3.07-4.44,5.93-7.05,8.55-10.45,10.45-24.89,16.92-40.84,16.92-31.9,0-57.75-25.86-57.75-57.75s25.86-57.75,57.75-57.75c15.95,0,30.39,6.46,40.84,16.92,2.61,2.61,4.98,5.47,7.05,8.55h-6.24v32.29Z"/><path class="cr" d="M184.29,95.62v31.92h5.69c-2.05,3.04-4.39,5.87-6.97,8.45-10.33,10.33-24.61,16.72-40.37,16.72-31.53,0-57.09-25.56-57.09-57.09s25.56-57.09,57.09-57.09c15.77,0,30.04,6.39,40.37,16.72,2.58,2.58,4.92,5.41,6.97,8.45h-5.69v31.92Z"/><path class="cb" d="M184.29,95.62v31.55h5.14c-2.03,3-4.34,5.8-6.89,8.35-10.21,10.21-24.32,16.53-39.91,16.53-31.17,0-56.43-25.27-56.43-56.43s25.27-56.43,56.43-56.43c15.58,0,29.69,6.32,39.91,16.53,2.55,2.55,4.86,5.35,6.89,8.35h-5.14v31.55Z"/><path class="ct" d="M184.29,95.62v31.18h4.6c-2,2.97-4.29,5.73-6.81,8.25-10.09,10.09-24.04,16.34-39.44,16.34-30.8,0-55.78-24.97-55.78-55.78s24.97-55.78,55.78-55.78c15.4,0,29.35,6.24,39.44,16.34,2.52,2.52,4.81,5.29,6.81,8.25h-4.6v31.18Z"/><path class="bn" d="M184.29,95.62v30.82h4.05c-1.98,2.93-4.24,5.66-6.73,8.16-9.97,9.97-23.75,16.14-38.97,16.14-30.44,0-55.12-24.68-55.12-55.12s24.68-55.12,55.12-55.12c15.22,0,29,6.17,38.97,16.14,2.49,2.49,4.75,5.22,6.73,8.16h-4.05v30.82Z"/><path class="bh" d="M184.29,95.62v30.45h3.5c-1.96,2.9-4.19,5.6-6.65,8.06-9.85,9.85-23.47,15.95-38.51,15.95-30.08,0-54.46-24.38-54.46-54.46s24.38-54.46,54.46-54.46c15.04,0,28.65,6.1,38.51,15.95,2.46,2.46,4.69,5.16,6.65,8.06h-3.5v30.45Z"/><path class="dh" d="M184.29,95.62v30.08h2.96c-1.93,2.86-4.14,5.53-6.57,7.96-9.74,9.74-23.19,15.76-38.04,15.76-29.71,0-53.8-24.09-53.8-53.8s24.09-53.8,53.8-53.8c14.86,0,28.31,6.02,38.04,15.76,2.43,2.43,4.64,5.1,6.57,7.96h-2.96v30.08Z"/><path class="dj" d="M184.29,95.62v29.71h2.41c-1.91,2.83-4.08,5.46-6.49,7.86-9.62,9.62-22.9,15.56-37.58,15.56-29.35,0-53.14-23.79-53.14-53.14s23.79-53.14,53.14-53.14c14.67,0,27.96,5.95,37.58,15.56,2.4,2.4,4.58,5.04,6.49,7.86h-2.41v29.71Z"/><path class="di" d="M184.29,95.62v20.43h6.7c-2.66,6.28-6.5,11.93-11.25,16.68-9.5,9.5-22.62,15.37-37.11,15.37-28.98,0-52.48-23.5-52.48-52.48s23.5-52.48,52.48-52.48c14.49,0,27.61,5.87,37.11,15.37,4.75,4.75,8.59,10.4,11.25,16.68h-6.7v20.43Z"/><path class="dw" d="M184.29,95.62v20.17h6.1c-2.62,6.2-6.42,11.78-11.11,16.47-9.38,9.38-22.33,15.18-36.64,15.18-28.62,0-51.82-23.2-51.82-51.82s23.2-51.82,51.82-51.82c14.31,0,27.27,5.8,36.64,15.18,4.69,4.69,8.48,10.27,11.11,16.47h-6.1v20.17Z"/><path class="cv" d="M184.29,95.62v19.92h5.49c-2.59,6.12-6.34,11.63-10.96,16.26-9.26,9.26-22.05,14.99-36.18,14.99-28.26,0-51.16-22.91-51.16-51.16s22.91-51.16,51.16-51.16c14.13,0,26.92,5.73,36.18,14.99,4.63,4.63,8.38,10.14,10.96,16.26h-5.49v19.92Z"/><path class="ea" d="M184.29,95.62v19.66h4.88c-2.56,6.04-6.25,11.48-10.82,16.05-9.14,9.14-21.77,14.79-35.71,14.79-27.89,0-50.5-22.61-50.5-50.5s22.61-50.5,50.5-50.5c13.95,0,26.57,5.65,35.71,14.79,4.57,4.57,8.27,10.01,10.82,16.05h-4.88v19.66Z"/><path class="dy" d="M184.29,95.62v19.4h4.28c-2.52,5.96-6.17,11.33-10.68,15.84-9.02,9.02-21.48,14.6-35.25,14.6-27.53,0-49.85-22.32-49.85-49.85s22.32-49.85,49.85-49.85c13.76,0,26.23,5.58,35.25,14.6,4.51,4.51,8.16,9.88,10.68,15.84h-4.28v19.4Z"/><path class="cx" d="M184.29,95.62v19.15h3.67c-2.49,5.88-6.09,11.18-10.54,15.63-8.9,8.9-21.2,14.41-34.78,14.41-27.16,0-49.19-22.02-49.19-49.19s22.02-49.19,49.19-49.19c13.58,0,25.88,5.51,34.78,14.41,4.45,4.45,8.05,9.75,10.54,15.63h-3.67v19.15Z"/><circle class="cw" cx="142.64" cy="95.62" r="48.53"/><circle class="dc" cx="142.64" cy="95.62" r="47.87"/><circle class="dd" cx="142.64" cy="95.62" r="47.21"/><circle class="cu" cx="142.64" cy="95.62" r="46.55"/><circle class="bw" cx="142.64" cy="95.62" r="45.89"/><circle class="bv" cx="142.64" cy="95.62" r="45.23"/><circle class="d`" cx="142.64" cy="95.62" r="44.57"/><circle class="cy" cx="142.64" cy="95.62" r="43.91"/><circle class="dg" cx="142.64" cy="95.62" r="43.26"/><circle class="de" cx="142.64" cy="95.62" r="42.6"/><circle class="df" cx="142.64" cy="95.62" r="41.94"/><circle class="dn" cx="142.64" cy="95.62" r="41.28"/><circle class="dk" cx="142.64" cy="95.62" r="40.62"/><circle class="ed" cx="142.64" cy="95.62" r="39.96"/><circle class="ec" cx="142.64" cy="95.62" r="39.3"/><circle class="cf" cx="142.64" cy="95.62" r="38.64"/><circle class="du" cx="142.64" cy="95.62" r="37.98"/><circle class="dq" cx="142.64" cy="95.62" r="37.32"/><circle class="dp" cx="142.64" cy="95.62" r="36.67"/><circle class="do" cx="142.64" cy="95.62" r="36.01"/><circle class="dm" cx="142.64" cy="95.62" r="35.35"/><circle class="dl" cx="142.64" cy="95.62" r="34.69"/><circle class="db" cx="142.64" cy="95.62" r="34.03"/><circle class="da" cx="142.64" cy="95.62" r="33.37"/><circle class="eb" cx="142.64" cy="95.62" r="32.71"/><circle class="ds" cx="142.64" cy="95.62" r="32.05"/><circle class="dt" cx="142.64" cy="95.62" r="31.39"/><circle class="e`" cx="142.64" cy="95.62" r="30.74"/><circle class="dx" cx="142.64" cy="95.62" r="30.08"/><circle class="w" cx="142.64" cy="95.62" r="29.42"/><circle class="ai" cx="142.64" cy="95.62" r="28.76"/><circle class="ae" cx="142.64" cy="95.62" r="28.1"/><circle class="v" cx="142.64" cy="95.62" r="27.44"/><circle class="t" cx="142.64" cy="95.62" r="26.78"/><circle class="u" cx="142.64" cy="95.62" r="26.12"/><circle class="a`" cx="142.64" cy="95.62" r="25.46"/><circle class="o" cx="142.64" cy="95.62" r="24.8"/><circle class="n" cx="142.64" cy="95.62" r="24.15"/><circle class="l" cx="142.64" cy="95.62" r="23.49"/><circle class="ab" cx="142.64" cy="95.62" r="22.83"/><circle class="x" cx="142.64" cy="95.62" r="22.17"/><circle class="k" cx="142.64" cy="95.62" r="21.51"/><circle class="j" cx="142.64" cy="95.62" r="20.85"/><circle class="ah" cx="142.64" cy="95.62" r="20.19"/><circle class="m" cx="142.64" cy="95.62" r="19.53"/><circle class="aa" cx="142.64" cy="95.62" r="18.87"/><circle class="g" cx="142.64" cy="95.62" r="18.22"/><circle class="d" cx="142.64" cy="95.62" r="17.56"/><circle class="p" cx="142.64" cy="95.62" r="16.9"/><circle class="q" cx="142.64" cy="95.62" r="16.24"/><circle class="r" cx="142.64" cy="95.62" r="15.58"/><circle class="e" cx="142.64" cy="95.62" r="14.92"/><circle class="f" cx="142.64" cy="95.62" r="14.26"/><circle class="i" cx="142.64" cy="95.62" r="13.6"/><circle class="h" cx="142.64" cy="95.62" r="12.94"/><circle class="af" cx="142.64" cy="95.62" r="12.28"/><circle class="ad" cx="142.64" cy="95.62" r="11.63"/><circle class="ag" cx="142.64" cy="95.62" r="10.97"/><circle class="s" cx="142.64" cy="95.62" r="10.31"/><circle class="aj" cx="142.64" cy="95.62" r="9.65"/><circle class="ac" cx="142.64" cy="95.62" r="8.99"/><circle class="y" cx="142.64" cy="95.62" r="8.33"/></g><g><path class="ak" d="M42.56,114.96c-.31,0-.52-.11-.64-.32-.12-.21-.18-.45-.18-.69,.03-.52,.15-.81,.37-.87,.21-.06,.48-.09,.78-.09,.98,0,1.67-.18,2.07-.53,.4-.35,.65-.8,.76-1.33,.11-.54,.16-1.1,.16-1.68v-18.26c0-.58-.05-1.14-.16-1.68-.11-.54-.36-.98-.76-1.33-.4-.35-1.09-.53-2.07-.53-.31,0-.57-.03-.78-.09-.22-.06-.34-.35-.37-.87,0-.25,.06-.48,.18-.69,.12-.21,.34-.32,.64-.32,.98,.03,1.9,.06,2.76,.09,.86,.03,1.75,.05,2.67,.05,1.87,0,3.79-.05,5.75-.14,.31,0,.52,.11,.64,.32,.12,.21,.18,.44,.18,.69-.03,.52-.15,.81-.35,.87-.2,.06-.47,.09-.8,.09-.95,0-1.63,.18-2.05,.53-.41,.35-.67,.8-.76,1.33-.09,.54-.15,1.1-.18,1.68v8.33c.52-.12,1.13-.44,1.82-.94,.69-.51,1.39-1.05,2.09-1.63,1.17-1.07,2.3-2.23,3.4-3.47,1.1-1.24,2.13-2.43,3.08-3.56,1.23-1.38,1.09-2.12-.41-2.21-.34-.03-.55-.35-.64-.97,0-.28,.08-.52,.23-.74,.15-.21,.35-.32,.6-.32,.8,.06,1.64,.1,2.53,.12,.89,.02,1.73,.02,2.53,.02,.61,0,1.32-.02,2.12-.05,.8-.03,1.49-.06,2.07-.09,.31,0,.53,.11,.67,.32,.14,.21,.21,.46,.21,.74-.03,.46-.13,.74-.3,.83-.17,.09-.38,.14-.62,.14-1.13-.06-2.25,.12-3.36,.55-1.1,.43-2.29,1.27-3.54,2.53-.4,.43-.91,.97-1.54,1.63-.63,.66-1.29,1.34-1.98,2.05-.69,.71-1.33,1.36-1.93,1.98-.6,.61-1.27,1.32-2,2.12,1.81,2.18,3.64,4.19,5.5,6.03,1.85,1.84,3.44,3.47,4.76,4.88,1.04,1.04,1.89,1.86,2.55,2.46,.66,.6,1.51,.96,2.55,1.08,.25,.03,.49,.07,.74,.12,.25,.04,.38,.33,.41,.85,0,.25-.06,.48-.18,.69-.12,.21-.34,.32-.64,.32-.64-.03-1.14-.05-1.5-.07-.35-.02-.69-.03-1.01-.04-.32-.02-.79-.02-1.4-.02h-2.94c-1.69-1.87-3.41-3.8-5.18-5.8-1.76-1.99-3.66-4.16-5.68-6.49-.55-.64-1.07-1.1-1.54-1.38-.48-.28-.96-.43-1.45-.46v8.74c.03,.58,.09,1.14,.18,1.68,.09,.54,.35,.98,.76,1.33,.41,.35,1.1,.53,2.05,.53,.34,0,.6,.03,.8,.09,.2,.06,.31,.35,.35,.87,0,.25-.06,.48-.18,.69-.12,.21-.34,.32-.64,.32-1.96-.09-3.86-.14-5.7-.14-.92,0-1.82,0-2.69,.02-.87,.01-1.8,.05-2.78,.12Z"/><path class="ak" d="M84.78,115.28l-7.64-23.92c-.49-1.26-.98-2.16-1.47-2.71-.49-.55-1.23-.92-2.21-1.1-.43-.09-.73-.17-.9-.23-.17-.06-.25-.34-.25-.83,0-.52,.18-.81,.55-.85s.8-.07,1.29-.07c2.05,.03,3.65,.41,4.78,1.13,1.13,.72,2.04,1.96,2.71,3.7l5.24,16.84h.18l5.61-21.44h2.39l7.5,21.44h.14l5.2-17.34c.25-.98,.24-1.6-.02-1.86-.26-.26-.93-.39-2-.39-.31,0-.57-.03-.78-.09-.21-.06-.34-.35-.37-.87,0-.25,.06-.48,.18-.69,.12-.21,.32-.32,.6-.32,.98,.03,1.83,.06,2.55,.09,.72,.03,1.54,.05,2.46,.05,.61,0,1.12,0,1.52-.02,.4-.02,.8-.03,1.22-.05,.41-.01,.94-.04,1.59-.07,.31,0,.52,.11,.64,.32,.12,.21,.18,.44,.18,.69-.03,.52-.15,.81-.34,.87-.2,.06-.47,.09-.8,.09-1.17,0-2.12,.22-2.88,.67-.75,.44-1.3,1.27-1.63,2.46l-7.54,24.52h-2.16l-7.45-21.94-5.93,21.94h-2.16Z"/><path class="ak" d="M129.04,115.74c-2.58,0-4.94-.61-7.08-1.84s-3.87-2.97-5.17-5.24c-1.3-2.27-1.96-4.98-1.96-8.14s.61-5.86,1.84-8.21c1.23-2.35,2.97-4.17,5.22-5.47,2.25-1.3,4.91-1.95,7.98-1.95,1.1,0,2.25,.11,3.43,.32,1.18,.21,2.28,.58,3.29,1.08s1.83,1.17,2.46,2c.63,.83,.94,1.86,.94,3.08,.03,1.32-.37,2.48-1.2,3.47s-1.99,1.49-3.5,1.49c-.92,0-1.57-.22-1.96-.67-.38-.44-.56-.77-.53-.99,0-.09,.19-.25,.57-.48s.77-.58,1.15-1.06c.38-.48,.58-1.11,.58-1.91,0-1.38-.46-2.48-1.38-3.29-.92-.81-2.22-1.22-3.91-1.22-1.84,0-3.49,.52-4.95,1.56-1.46,1.04-2.6,2.57-3.43,4.58-.83,2.01-1.24,4.47-1.24,7.38,0,2.45,.44,4.69,1.31,6.69,.87,2.01,2.1,3.6,3.68,4.78,1.58,1.18,3.41,1.77,5.5,1.77,1.66,0,3.07-.35,4.25-1.04,1.18-.69,2.25-1.8,3.2-3.33,.28-.52,.77-.57,1.47-.14,.28,.18,.49,.41,.64,.67s.12,.53-.09,.8c-1.17,1.47-2.27,2.58-3.31,3.33-1.04,.75-2.18,1.27-3.4,1.54-1.23,.28-2.7,.41-4.42,.41Z"/></g><g><path class="ak" d="M19.28,136.57c-.08,0-.14-.03-.17-.08-.03-.06-.05-.12-.05-.18,0-.14,.04-.21,.1-.23,.06-.02,.12-.02,.2-.02,.26,0,.44-.05,.54-.14s.17-.21,.2-.35c.03-.14,.04-.29,.04-.44v-4.76c0-.15-.01-.3-.04-.44-.03-.14-.09-.26-.2-.35s-.28-.14-.54-.14c-.08,0-.15,0-.2-.02-.06-.02-.09-.09-.1-.23,0-.06,.02-.12,.05-.18,.03-.06,.09-.08,.17-.08,.26,0,.5,.02,.72,.02,.22,0,.46,.01,.7,.01,.49,0,.99-.01,1.5-.04,.08,0,.14,.03,.17,.08,.03,.06,.05,.12,.05,.18,0,.14-.04,.21-.09,.23-.05,.02-.12,.02-.21,.02-.25,0-.43,.05-.53,.14-.11,.09-.17,.21-.2,.35-.02,.14-.04,.29-.05,.44v2.17c.14-.03,.29-.11,.47-.25,.18-.13,.36-.27,.55-.43,.3-.28,.6-.58,.89-.91s.56-.63,.8-.93c.32-.36,.28-.55-.11-.58-.09,0-.14-.09-.17-.25,0-.07,.02-.14,.06-.19,.04-.06,.09-.08,.16-.08,.21,.02,.43,.03,.66,.03,.23,0,.45,0,.66,0,.16,0,.34,0,.55-.01s.39-.02,.54-.02c.08,0,.14,.03,.17,.08,.04,.06,.05,.12,.05,.19,0,.12-.03,.19-.08,.22-.04,.02-.1,.04-.16,.04-.3-.02-.59,.03-.88,.14-.29,.11-.6,.33-.92,.66-.1,.11-.24,.25-.4,.43s-.34,.35-.52,.53c-.18,.18-.35,.36-.5,.52-.16,.16-.33,.34-.52,.55,.47,.57,.95,1.09,1.43,1.57,.48,.48,.9,.9,1.24,1.27,.27,.27,.49,.49,.67,.64,.17,.16,.39,.25,.67,.28,.06,0,.13,.02,.19,.03s.1,.09,.11,.22c0,.06-.02,.12-.05,.18-.03,.06-.09,.08-.17,.08-.17,0-.3-.01-.39-.02s-.18,0-.26-.01-.21,0-.37,0h-.77c-.44-.49-.89-.99-1.35-1.51-.46-.52-.95-1.08-1.48-1.69-.14-.17-.28-.29-.4-.36-.12-.07-.25-.11-.38-.12v2.28c0,.15,.02,.3,.05,.44s.09,.26,.2,.35c.11,.09,.29,.14,.53,.14,.09,0,.16,0,.21,.02,.05,.02,.08,.09,.09,.23,0,.06-.02,.12-.05,.18s-.09,.08-.17,.08c-.51-.02-1.01-.04-1.49-.04-.24,0-.47,0-.7,0s-.47,.01-.73,.03Z"/><path class="ak" d="M27.02,136.57c-.08,0-.14-.03-.17-.08-.03-.06-.05-.12-.05-.18,0-.14,.04-.21,.1-.23,.06-.02,.12-.02,.2-.02,.22,0,.38-.04,.49-.13,.11-.09,.2-.2,.27-.35s.13-.29,.2-.44l2.1-4.97c.08-.19,.1-.34,.05-.44-.05-.1-.13-.17-.24-.22s-.24-.08-.37-.1c-.12-.02-.2-.05-.24-.07-.04-.02-.06-.09-.06-.21,0-.14,.05-.21,.14-.22,.1-.01,.21-.02,.34-.02,.33,0,.61,.03,.84,.1s.43,.19,.6,.37c.17,.18,.32,.45,.47,.81l2.02,4.97c.06,.14,.12,.28,.18,.42,.06,.14,.15,.26,.26,.35s.25,.14,.41,.15c.09,0,.16,0,.21,.02,.05,.02,.08,.09,.09,.23,0,.06-.02,.12-.05,.18s-.09,.08-.16,.08c-.26-.02-.48-.03-.67-.03s-.41,0-.65,0c-.47,0-.97,.01-1.49,.04-.08,0-.14-.03-.17-.08-.03-.06-.05-.12-.05-.18,0-.14,.04-.21,.1-.23,.06-.02,.12-.02,.2-.02,.39,0,.61-.07,.64-.22,.04-.14,0-.38-.11-.71l-.41-1h-2.96c-.12,.3-.21,.52-.26,.66-.05,.14-.08,.22-.1,.26s-.02,.06-.03,.07c-.09,.27-.13,.47-.14,.61,0,.13,.06,.22,.19,.26s.35,.06,.67,.06c.09,0,.16,0,.21,.02,.05,.02,.08,.09,.09,.23,0,.06-.02,.12-.05,.18s-.09,.08-.16,.08c-.26-.02-.48-.03-.67-.03s-.4,0-.64,0c-.16,0-.29,0-.4,0s-.22,0-.33,.01-.26,.01-.43,.02Zm2.28-2.95h2.52l-1.21-3.08h-.04l-1.27,3.08Z"/><path class="ak" d="M35.02,136.57c-.07,0-.13-.03-.16-.08s-.05-.12-.05-.18c0-.14,.04-.21,.1-.23,.06-.02,.13-.02,.21-.02,.26,0,.44-.05,.54-.14s.17-.21,.2-.35c.03-.14,.04-.29,.04-.44v-4.76c0-.15-.01-.3-.04-.44-.03-.14-.09-.26-.2-.35s-.28-.14-.54-.14c-.08,0-.15,0-.21-.02-.06-.02-.09-.09-.1-.23,0-.06,.02-.12,.05-.18,.04-.06,.09-.08,.16-.08,.26,0,.5,.02,.73,.02,.23,0,.47,.01,.71,.01h1.8c.15,0,.35,.01,.59,.04,.24,.02,.5,.07,.78,.14,.28,.07,.54,.19,.79,.35,.25,.16,.45,.37,.61,.64,.16,.26,.23,.6,.23,1,0,.38-.09,.72-.26,1.02-.17,.3-.4,.56-.68,.78-.28,.22-.6,.38-.96,.5-.36,.12-.72,.17-1.09,.17-.18,0-.37-.01-.58-.04-.21-.02-.42-.08-.62-.16v1.73c0,.15,.02,.3,.05,.44,.02,.14,.09,.26,.2,.35s.29,.14,.53,.14c.09,0,.16,0,.22,.02,.06,.02,.09,.09,.1,.23,0,.06-.02,.12-.05,.18s-.09,.08-.16,.08c-.51-.02-1.01-.04-1.5-.04-.24,0-.47,0-.7,0s-.47,.01-.73,.03Zm2.9-3.52c.18,0,.39-.03,.62-.09,.23-.06,.45-.16,.66-.3,.21-.14,.39-.33,.52-.58,.14-.24,.2-.55,.2-.93,0-.41-.08-.73-.24-.97-.16-.24-.36-.41-.59-.52-.24-.11-.47-.18-.7-.22s-.42-.05-.56-.05c-.19,0-.34,.02-.46,.06-.11,.04-.19,.13-.23,.26-.04,.13-.07,.33-.07,.61v2.59c.08,.03,.2,.06,.35,.09,.15,.03,.32,.04,.5,.04Z"/><path class="ak" d="M42.18,136.57c-.08,0-.14-.03-.17-.08-.03-.06-.05-.12-.05-.18,0-.14,.04-.21,.1-.23,.06-.02,.12-.02,.2-.02,.26,0,.44-.05,.54-.14,.1-.09,.17-.21,.2-.35,.03-.14,.05-.29,.05-.44v-4.76c0-.15-.03-.3-.05-.44-.03-.14-.09-.26-.2-.35-.1-.09-.28-.14-.54-.14-.08,0-.15,0-.2-.02-.06-.02-.09-.09-.1-.23,0-.06,.02-.12,.05-.18,.03-.06,.09-.08,.17-.08,.26,0,.5,.02,.73,.02s.46,.01,.7,.01c.49,0,.99-.01,1.5-.04,.07,0,.13,.03,.16,.08,.04,.06,.05,.12,.05,.18,0,.14-.04,.21-.1,.23-.06,.02-.13,.02-.22,.02-.25,0-.43,.05-.53,.14s-.17,.21-.2,.35c-.02,.14-.04,.29-.05,.44v4.76c0,.15,.02,.3,.05,.44,.02,.14,.09,.26,.2,.35s.29,.14,.53,.14c.09,0,.16,0,.22,.02,.06,.02,.09,.09,.1,.23,0,.06-.02,.12-.05,.18s-.09,.08-.16,.08c-.51-.02-1.01-.04-1.49-.04-.24,0-.48,0-.71,0-.23,0-.48,.01-.73,.03Z"/><path class="ak" d="M47.84,136.57c-.08,0-.14-.03-.17-.08-.03-.06-.05-.12-.05-.18,0-.14,.04-.21,.1-.23,.06-.02,.12-.02,.2-.02,.26,0,.44-.05,.54-.14s.17-.21,.2-.35c.03-.14,.04-.29,.04-.44v-5.72h-.83c-.27,0-.48,.07-.64,.17-.15,.11-.26,.28-.34,.5-.07,.23-.14,.52-.19,.88,0,.07-.06,.13-.15,.16-.09,.04-.18,.05-.27,.05-.06,0-.12-.02-.19-.06-.07-.04-.1-.1-.1-.18l.04-1.69c0-.11,.03-.19,.1-.23s.14-.06,.23-.06h5.87c.09,0,.16,.02,.22,.06,.06,.04,.09,.12,.09,.23l.05,1.69c0,.08-.03,.14-.1,.18s-.13,.06-.2,.06c-.08,0-.16-.02-.25-.05-.09-.04-.14-.09-.16-.16-.06-.36-.12-.65-.2-.88-.08-.23-.19-.4-.34-.5-.15-.11-.36-.17-.64-.17h-.82v5.72c0,.15,.02,.3,.05,.44s.09,.26,.2,.35c.11,.09,.29,.14,.53,.14,.08,0,.15,0,.2,.02,.06,.02,.09,.09,.1,.23,0,.06-.02,.12-.05,.18-.03,.06-.09,.08-.17,.08-.26-.02-.5-.03-.73-.03s-.46,0-.69,0c-.48,0-.98,.01-1.5,.04Z"/><path class="ak" d="M53.46,136.57c-.08,0-.14-.03-.17-.08-.03-.06-.05-.12-.05-.18,0-.14,.04-.21,.1-.23,.06-.02,.12-.02,.2-.02,.26,0,.44-.05,.54-.14,.1-.09,.17-.21,.2-.35,.03-.14,.05-.29,.05-.44v-4.76c0-.15-.03-.3-.05-.44-.03-.14-.09-.26-.2-.35-.1-.09-.28-.14-.54-.14-.08,0-.15,0-.2-.02-.06-.02-.09-.09-.1-.23,0-.06,.02-.12,.05-.18,.03-.06,.09-.08,.17-.08,.26,0,.5,.02,.73,.02s.46,.01,.7,.01c.49,0,.99-.01,1.5-.04,.07,0,.13,.03,.16,.08,.04,.06,.05,.12,.05,.18,0,.14-.04,.21-.1,.23-.06,.02-.13,.02-.22,.02-.25,0-.43,.05-.53,.14s-.17,.21-.2,.35c-.02,.14-.04,.29-.05,.44v4.76c0,.15,.02,.3,.05,.44,.02,.14,.09,.26,.2,.35s.29,.14,.53,.14c.09,0,.16,0,.22,.02,.06,.02,.09,.09,.1,.23,0,.06-.02,.12-.05,.18s-.09,.08-.16,.08c-.51-.02-1.01-.04-1.49-.04-.24,0-.48,0-.71,0-.23,0-.48,.01-.73,.03Z"/><path class="ak" d="M63.14,136.65l-1.99-6.24c-.13-.33-.26-.56-.38-.71-.13-.14-.32-.24-.58-.29-.11-.02-.19-.04-.23-.06-.04-.02-.07-.09-.07-.22,0-.14,.05-.21,.14-.22,.1-.01,.21-.02,.34-.02,.54,0,.95,.11,1.25,.29,.3,.19,.53,.51,.71,.97l1.37,4.39h.05l1.46-5.59h.62l1.96,5.59h.04l1.36-4.52c.06-.26,.06-.42,0-.49-.07-.07-.24-.1-.52-.1-.08,0-.15,0-.2-.02-.06-.02-.09-.09-.1-.23,0-.06,.02-.12,.05-.18,.03-.06,.08-.08,.16-.08,.26,0,.48,.02,.67,.02s.4,.01,.64,.01c.16,0,.29,0,.4,0s.21,0,.32-.01c.11,0,.25,0,.41-.02,.08,0,.14,.03,.17,.08,.03,.06,.05,.12,.05,.18,0,.14-.04,.21-.09,.23-.05,.02-.12,.02-.21,.02-.3,0-.55,.06-.75,.17-.2,.12-.34,.33-.43,.64l-1.97,6.4h-.56l-1.94-5.72-1.55,5.72h-.56Z"/><path class="ak" d="M74.78,136.77c-.58,0-1.11-.11-1.58-.32-.47-.22-.88-.51-1.21-.88-.34-.37-.59-.79-.77-1.25-.18-.47-.26-.96-.26-1.47,0-.66,.11-1.25,.34-1.76,.23-.51,.53-.94,.91-1.3,.38-.35,.79-.62,1.24-.8,.45-.18,.9-.27,1.34-.27,.6,0,1.14,.11,1.61,.32s.88,.51,1.22,.88c.34,.37,.59,.79,.77,1.25,.18,.47,.26,.95,.26,1.46,0,.66-.12,1.25-.35,1.76-.23,.51-.54,.94-.92,1.3-.38,.35-.8,.62-1.25,.8-.45,.18-.9,.28-1.34,.28Zm-.01-.53c.57,0,1.03-.17,1.39-.5s.63-.78,.8-1.33,.26-1.14,.26-1.78c0-.6-.09-1.16-.27-1.67-.18-.52-.45-.93-.81-1.25-.36-.32-.82-.47-1.37-.47s-1.02,.17-1.37,.5-.62,.77-.79,1.31c-.17,.54-.25,1.13-.25,1.77,0,.6,.09,1.16,.26,1.69,.17,.52,.44,.95,.8,1.27,.36,.32,.81,.48,1.36,.48Z"/><path class="ak" d="M84.2,136.59s-.1,0-.14-.03c-.05-.02-.08-.05-.11-.09l-2.7-6.11h-.04l.02,4.76c0,.15,.02,.3,.04,.44s.08,.26,.19,.35c.1,.09,.28,.14,.53,.14,.09,0,.16,0,.22,.02,.06,.02,.09,.09,.1,.23,0,.06-.02,.12-.05,.18-.04,.06-.09,.08-.16,.08-.17,0-.3-.01-.41-.02-.1,0-.2,0-.3-.01-.1,0-.22,0-.38,0-.24,0-.43,0-.58,0-.15,0-.35,.01-.61,.03-.08,0-.14-.03-.17-.08-.03-.06-.05-.12-.05-.18,0-.14,.04-.21,.1-.23,.06-.02,.12-.02,.2-.02,.26,0,.43-.05,.53-.14,.1-.09,.16-.21,.19-.35,.02-.14,.04-.29,.04-.44l.02-4.76c0-.26-.03-.45-.08-.57-.06-.12-.14-.21-.26-.26s-.27-.09-.46-.13c-.11-.02-.19-.04-.23-.06-.04-.02-.07-.09-.07-.22,0-.14,.05-.21,.14-.22,.1-.01,.21-.02,.34-.02,.39,0,.74,.03,1.04,.1,.3,.06,.56,.19,.79,.37,.22,.18,.41,.45,.55,.81l2.06,4.63h.04l2.36-5.83h.68c.24,0,.47,0,.7-.01,.23,0,.47-.02,.73-.02,.08,0,.14,.03,.17,.08,.03,.06,.05,.12,.05,.18,0,.14-.04,.21-.1,.23-.06,.02-.12,.02-.2,.02-.25,0-.43,.05-.53,.14-.11,.09-.17,.21-.2,.35-.02,.14-.04,.29-.05,.44v4.76c0,.15,.02,.3,.05,.44,.02,.14,.09,.26,.2,.35,.11,.09,.29,.14,.53,.14,.08,0,.15,0,.2,.02,.06,.02,.09,.09,.1,.23,0,.06-.02,.12-.05,.18-.03,.06-.09,.08-.17,.08-.26-.02-.5-.03-.73-.03-.23,0-.47,0-.71,0-.46,0-.96,.01-1.48,.04-.08,0-.14-.03-.17-.08-.03-.06-.05-.12-.05-.18,0-.14,.04-.21,.1-.23,.06-.02,.12-.02,.2-.02,.26,0,.44-.05,.54-.14,.1-.09,.17-.21,.2-.35s.04-.29,.04-.44v-4.76h-.04l-2.47,6.11s-.05,.07-.1,.09c-.05,.02-.1,.03-.14,.03Z"/><path class="ak" d="M90.45,136.57c-.07,0-.12-.03-.16-.08-.03-.06-.05-.12-.05-.18,0-.14,.04-.21,.1-.23,.06-.02,.12-.02,.2-.02,.26,0,.44-.05,.54-.14,.1-.09,.17-.21,.2-.35s.04-.29,.04-.44v-4.76c0-.15-.01-.3-.04-.44-.03-.14-.09-.26-.2-.35-.1-.09-.28-.14-.54-.14-.08,0-.15,0-.2-.02-.06-.02-.09-.09-.1-.23,0-.06,.02-.12,.05-.18,.03-.06,.08-.08,.16-.08,.26,0,.51,.02,.73,.02,.22,0,.46,.01,.7,.01h3.77c.09,0,.16,.02,.22,.06,.06,.04,.09,.12,.09,.23l.04,1.68c0,.08-.04,.14-.11,.18-.08,.04-.15,.06-.21,.06-.09,0-.17-.02-.24-.05s-.12-.09-.13-.16c-.06-.36-.12-.65-.2-.87-.08-.22-.19-.38-.34-.48-.15-.1-.36-.15-.64-.16h-1.61v3.05h2.17c.06,0,.11,.04,.14,.1,.03,.06,.04,.12,.04,.18,0,.06-.01,.11-.04,.16-.03,.05-.07,.08-.14,.08h-2.17v2.27c0,.1,.02,.22,.05,.34s.09,.23,.21,.32,.31,.13,.58,.12h1.1c.28,0,.49-.05,.64-.14,.15-.08,.27-.23,.35-.43s.18-.48,.29-.83c.03-.08,.09-.13,.16-.16,.08-.02,.16-.03,.25-.01,.06,0,.13,.04,.2,.08,.07,.05,.1,.11,.09,.19l-.24,1.51c-.02,.11-.06,.18-.11,.21-.05,.03-.13,.04-.23,.04h-3.96c-.24,0-.47,0-.7,0s-.47,.01-.74,.03Z"/><path class="ak" d="M97.6,136.57c-.08,0-.14-.03-.17-.08-.03-.06-.05-.12-.05-.18,0-.14,.04-.21,.1-.23,.06-.02,.12-.02,.2-.02,.26,0,.43-.05,.53-.14,.1-.09,.16-.21,.19-.35,.02-.14,.04-.29,.04-.44l.02-4.76c0-.38-.06-.62-.19-.72-.13-.1-.33-.18-.61-.24-.12-.02-.2-.05-.24-.07-.04-.02-.06-.09-.06-.21,0-.14,.05-.21,.14-.22,.1-.01,.21-.02,.34-.02,.45,0,.81,.04,1.09,.11,.28,.07,.52,.2,.73,.38,.21,.18,.44,.44,.69,.78l3.29,4.32h.04l-.02-4.12c0-.15-.01-.3-.04-.44-.02-.14-.09-.26-.19-.35-.1-.09-.28-.14-.53-.14-.08,0-.15,0-.2-.02-.06-.02-.09-.09-.11-.23,0-.06,.02-.12,.05-.18,.04-.06,.09-.08,.16-.08,.18,0,.32,.01,.43,.02h.32c.11,.02,.24,.02,.4,.02s.29,0,.4,0c.1,0,.21,0,.32-.01,.11,0,.25,0,.41-.02,.08,0,.14,.03,.17,.08,.03,.06,.05,.12,.05,.18,0,.14-.04,.21-.09,.23-.05,.02-.12,.02-.21,.02-.25,0-.42,.05-.53,.14-.1,.09-.17,.21-.19,.35-.02,.14-.03,.29-.04,.44l-.02,6.05c0,.06-.05,.11-.11,.13-.07,.02-.13,.03-.19,.03-.15,0-.27-.05-.35-.16l-4.52-6.05h-.04l.02,4.76c0,.15,.02,.3,.04,.44s.08,.26,.19,.35c.1,.09,.28,.14,.53,.14,.09,0,.16,0,.22,.02,.06,.02,.09,.09,.1,.23,0,.06-.02,.12-.05,.18-.04,.06-.09,.08-.16,.08-.17,0-.31-.01-.43-.02-.12,0-.23,0-.34-.01-.11,0-.24,0-.4,0s-.29,0-.39,0c-.1,0-.2,0-.31,.01-.1,0-.24,.01-.42,.02Z"/><path class="ak" d="M106.31,131c-.08,.02-.15,.01-.2-.04-.05-.05-.08-.11-.08-.18s.04-.12,.12-.16c.68-.26,1.02-.61,1.02-1.07,0-.14-.05-.26-.14-.35s-.2-.17-.31-.24c-.12-.07-.22-.15-.31-.23s-.14-.2-.14-.34c0-.15,.06-.29,.17-.41s.26-.19,.43-.19c.23,0,.44,.07,.62,.22,.18,.14,.33,.33,.43,.55,.1,.22,.16,.44,.16,.67,0,.33-.09,.61-.27,.85s-.41,.43-.68,.58c-.27,.15-.55,.27-.83,.35Z"/><path class="ak" d="M111.75,136.77c-.83,0-1.47-.15-1.92-.44s-.67-.72-.67-1.29c0-.29,.1-.53,.29-.71,.2-.19,.45-.28,.76-.28,.21,0,.35,.06,.44,.16s.13,.17,.13,.22c0,.02-.04,.04-.11,.08-.07,.04-.14,.1-.22,.19s-.11,.23-.11,.43c0,.36,.11,.65,.34,.86,.22,.21,.58,.32,1.07,.32,.34,0,.64-.07,.88-.2,.24-.13,.43-.3,.56-.52s.19-.43,.19-.65c0-.34-.1-.61-.29-.83-.19-.22-.44-.4-.75-.56-.31-.16-.63-.31-.98-.45-.34-.14-.67-.31-.98-.49-.31-.18-.56-.41-.76-.69s-.3-.62-.31-1.04c0-.5,.1-.91,.32-1.23,.22-.32,.54-.55,.94-.7s.84-.22,1.33-.22c.36,0,.71,.05,1.06,.16,.35,.1,.64,.27,.86,.49,.23,.22,.34,.51,.34,.87,0,.29-.1,.53-.29,.71-.2,.19-.45,.28-.76,.28-.21-.02-.35-.07-.44-.16s-.13-.16-.13-.21c0-.02,.05-.05,.14-.09,.1-.04,.19-.1,.29-.19s.14-.23,.14-.41c0-.3-.12-.54-.35-.7s-.52-.25-.86-.25c-.52,0-.9,.12-1.13,.37s-.35,.52-.35,.82,.08,.54,.24,.72c.16,.18,.4,.36,.72,.54,.36,.19,.72,.37,1.09,.53s.71,.35,1.03,.55c.32,.2,.57,.45,.76,.75,.19,.3,.29,.69,.29,1.16,0,.41-.13,.77-.38,1.09s-.59,.57-1.01,.76-.9,.28-1.42,.28Z"/><path class="ak" d="M122.08,136.77c-.67,0-1.29-.16-1.85-.48-.56-.32-1.01-.78-1.35-1.37-.34-.59-.51-1.3-.51-2.12s.16-1.53,.48-2.14c.32-.61,.77-1.09,1.36-1.43s1.28-.51,2.08-.51c.29,0,.59,.03,.89,.08,.31,.06,.59,.15,.86,.28,.26,.13,.48,.31,.64,.52s.25,.48,.25,.8c0,.34-.1,.65-.31,.91s-.52,.39-.91,.39c-.24,0-.41-.06-.51-.17s-.15-.2-.14-.26c0-.02,.05-.07,.15-.13,.1-.06,.2-.15,.3-.28,.1-.12,.15-.29,.15-.5,0-.36-.12-.65-.36-.86-.24-.21-.58-.32-1.02-.32-.48,0-.91,.14-1.29,.41-.38,.27-.68,.67-.89,1.19-.22,.52-.32,1.17-.32,1.93,0,.64,.11,1.22,.34,1.75,.23,.52,.55,.94,.96,1.25,.41,.31,.89,.46,1.43,.46,.43,0,.8-.09,1.11-.27s.59-.47,.83-.87c.07-.14,.2-.15,.38-.04,.07,.05,.13,.11,.17,.17,.04,.07,.03,.14-.02,.21-.3,.38-.59,.67-.86,.87-.27,.2-.57,.33-.89,.4-.32,.07-.7,.11-1.15,.11Z"/><path class="ak" d="M126.11,136.57c-.07,0-.12-.03-.16-.08-.03-.06-.05-.12-.05-.18,0-.14,.04-.21,.1-.23,.06-.02,.12-.02,.2-.02,.26,0,.44-.05,.54-.14,.1-.09,.17-.21,.2-.35s.04-.29,.04-.44v-4.76c0-.15-.01-.3-.04-.44-.03-.14-.09-.26-.2-.35-.1-.09-.28-.14-.54-.14-.08,0-.15,0-.2-.02-.06-.02-.09-.09-.1-.23,0-.06,.02-.12,.05-.18,.03-.06,.08-.08,.16-.08,.26,0,.51,.02,.73,.02,.22,0,.46,.01,.7,.01h3.77c.09,0,.16,.02,.22,.06,.06,.04,.09,.12,.09,.23l.04,1.68c0,.08-.04,.14-.11,.18-.08,.04-.15,.06-.21,.06-.09,0-.17-.02-.24-.05s-.12-.09-.13-.16c-.06-.36-.12-.65-.2-.87-.08-.22-.19-.38-.34-.48-.15-.1-.36-.15-.64-.16h-1.61v3.05h2.17c.06,0,.11,.04,.14,.1,.03,.06,.04,.12,.04,.18,0,.06-.01,.11-.04,.16-.03,.05-.07,.08-.14,.08h-2.17v2.27c0,.1,.02,.22,.05,.34s.09,.23,.21,.32,.31,.13,.58,.12h1.1c.28,0,.49-.05,.64-.14,.15-.08,.27-.23,.35-.43s.18-.48,.29-.83c.03-.08,.09-.13,.16-.16,.08-.02,.16-.03,.25-.01,.06,0,.13,.04,.2,.08,.07,.05,.1,.11,.09,.19l-.24,1.51c-.02,.11-.06,.18-.11,.21-.05,.03-.13,.04-.23,.04h-3.96c-.24,0-.47,0-.7,0s-.47,.01-.74,.03Z"/><path class="ak" d="M133.26,136.57c-.08,0-.14-.03-.17-.08-.03-.06-.05-.12-.05-.18,0-.14,.04-.21,.1-.23,.06-.02,.12-.02,.2-.02,.26,0,.43-.05,.53-.14,.1-.09,.16-.21,.19-.35,.02-.14,.04-.29,.04-.44l.02-4.76c0-.38-.06-.62-.19-.72-.13-.1-.33-.18-.61-.24-.12-.02-.2-.05-.24-.07-.04-.02-.06-.09-.06-.21,0-.14,.05-.21,.14-.22,.1-.01,.21-.02,.34-.02,.45,0,.81,.04,1.09,.11,.28,.07,.52,.2,.73,.38,.21,.18,.44,.44,.69,.78l3.29,4.32h.04l-.02-4.12c0-.15-.01-.3-.04-.44-.02-.14-.09-.26-.19-.35-.1-.09-.28-.14-.53-.14-.08,0-.15,0-.2-.02-.06-.02-.09-.09-.11-.23,0-.06,.02-.12,.05-.18,.04-.06,.09-.08,.16-.08,.18,0,.32,.01,.43,.02h.32c.11,.02,.24,.02,.4,.02s.29,0,.4,0c.1,0,.21,0,.32-.01,.11,0,.25,0,.41-.02,.08,0,.14,.03,.17,.08,.03,.06,.05,.12,.05,.18,0,.14-.04,.21-.09,.23-.05,.02-.12,.02-.21,.02-.25,0-.42,.05-.53,.14-.1,.09-.17,.21-.19,.35-.02,.14-.03,.29-.04,.44l-.02,6.05c0,.06-.05,.11-.11,.13-.07,.02-.13,.03-.19,.03-.15,0-.27-.05-.35-.16l-4.52-6.05h-.04l.02,4.76c0,.15,.02,.3,.04,.44s.08,.26,.19,.35c.1,.09,.28,.14,.53,.14,.09,0,.16,0,.22,.02,.06,.02,.09,.09,.1,.23,0,.06-.02,.12-.05,.18-.04,.06-.09,.08-.16,.08-.17,0-.31-.01-.43-.02-.12,0-.23,0-.34-.01-.11,0-.24,0-.4,0s-.29,0-.39,0c-.1,0-.2,0-.31,.01-.1,0-.24,.01-.42,.02Z"/><path class="ak" d="M143.37,136.57c-.08,0-.14-.03-.17-.08-.03-.06-.05-.12-.05-.18,0-.14,.04-.21,.1-.23,.06-.02,.12-.02,.2-.02,.26,0,.44-.05,.54-.14,.1-.09,.17-.21,.2-.35s.04-.29,.04-.44v-5.72h-.83c-.27,0-.48,.07-.64,.17-.15,.11-.26,.28-.34,.5-.07,.23-.14,.52-.19,.88,0,.07-.06,.13-.15,.16s-.18,.05-.27,.05c-.06,0-.12-.02-.19-.06-.07-.04-.1-.1-.1-.18l.04-1.69c0-.11,.03-.19,.1-.23,.06-.04,.14-.06,.23-.06h5.87c.09,0,.16,.02,.22,.06,.06,.04,.09,.12,.09,.23l.05,1.69c0,.08-.03,.14-.1,.18s-.13,.06-.2,.06c-.08,0-.16-.02-.25-.05s-.14-.09-.16-.16c-.06-.36-.12-.65-.2-.88-.08-.23-.19-.4-.34-.5-.15-.11-.36-.17-.64-.17h-.82v5.72c0,.15,.02,.3,.05,.44s.09,.26,.2,.35c.11,.09,.29,.14,.53,.14,.08,0,.15,0,.2,.02,.06,.02,.09,.09,.1,.23,0,.06-.02,.12-.05,.18-.03,.06-.09,.08-.17,.08-.26-.02-.5-.03-.73-.03-.23,0-.46,0-.69,0-.48,0-.98,.01-1.5,.04Z"/><path class="ak" d="M149.01,136.57c-.08,0-.14-.03-.17-.08-.03-.06-.05-.12-.05-.18,0-.14,.04-.21,.1-.23,.06-.02,.12-.02,.2-.02,.26,0,.44-.05,.54-.14,.1-.09,.17-.21,.2-.35s.04-.29,.04-.44v-4.75c0-.15-.01-.3-.04-.44-.03-.14-.09-.26-.2-.35-.1-.09-.28-.14-.54-.14-.08,0-.15,0-.2-.02-.06-.02-.09-.09-.1-.23,0-.06,.02-.12,.05-.18,.03-.06,.09-.08,.17-.08,.26,0,.5,.02,.73,.02s.46,.01,.7,.01h2.06c.65,0,1.17,.11,1.58,.3,.4,.19,.7,.44,.88,.73,.18,.3,.28,.6,.28,.92,0,.42-.17,.82-.51,1.2s-.82,.64-1.43,.8c.3,.48,.61,.96,.92,1.45,.31,.48,.67,.94,1.08,1.36,.11,.09,.22,.16,.33,.22,.11,.06,.24,.09,.39,.11,.06,0,.13,.02,.19,.03,.06,.01,.1,.09,.11,.22,0,.06-.02,.12-.05,.18-.03,.06-.09,.08-.17,.08-.17,0-.3-.01-.4-.02s-.2,0-.29-.01-.22,0-.38,0c-.33-.06-.61-.18-.83-.35-.23-.17-.45-.4-.67-.7-.22-.3-.43-.61-.62-.92-.19-.31-.38-.62-.56-.91-.1-.17-.21-.29-.32-.37-.11-.08-.31-.11-.61-.11h-.35v1.96c0,.15,.02,.3,.05,.44s.09,.26,.2,.35c.11,.09,.29,.14,.53,.14,.08,0,.15,0,.2,.02,.06,.02,.09,.09,.1,.23,0,.06-.02,.12-.05,.18-.03,.06-.09,.08-.17,.08-.51-.02-1.01-.04-1.5-.04-.24,0-.47,0-.7,0-.22,0-.46,.01-.72,.03Zm2.05-3.86h1.06c.41,0,.73-.06,.97-.17,.24-.11,.41-.26,.53-.43s.2-.36,.23-.55c.04-.19,.05-.37,.05-.53,0-.26-.06-.52-.17-.77-.12-.25-.32-.45-.61-.61s-.7-.24-1.22-.24c-.34,0-.57,.07-.68,.2-.11,.13-.16,.4-.16,.8v2.3Z"/><path class="ak" d="M157.05,136.57c-.07,0-.12-.03-.16-.08-.03-.06-.05-.12-.05-.18,0-.14,.04-.21,.1-.23,.06-.02,.12-.02,.2-.02,.26,0,.44-.05,.54-.14,.1-.09,.17-.21,.2-.35s.04-.29,.04-.44v-4.76c0-.15-.01-.3-.04-.44-.03-.14-.09-.26-.2-.35-.1-.09-.28-.14-.54-.14-.08,0-.15,0-.2-.02-.06-.02-.09-.09-.1-.23,0-.06,.02-.12,.05-.18,.03-.06,.08-.08,.16-.08,.26,0,.51,.02,.73,.02,.22,0,.46,.01,.7,.01h3.77c.09,0,.16,.02,.22,.06,.06,.04,.09,.12,.09,.23l.04,1.68c0,.08-.04,.14-.11,.18-.08,.04-.15,.06-.21,.06-.09,0-.17-.02-.24-.05s-.12-.09-.13-.16c-.06-.36-.12-.65-.2-.87-.08-.22-.19-.38-.34-.48-.15-.1-.36-.15-.64-.16h-1.61v3.05h2.17c.06,0,.11,.04,.14,.1,.03,.06,.04,.12,.04,.18,0,.06-.01,.11-.04,.16-.03,.05-.07,.08-.14,.08h-2.17v2.27c0,.1,.02,.22,.05,.34s.09,.23,.21,.32,.31,.13,.58,.12h1.1c.28,0,.49-.05,.64-.14,.15-.08,.27-.23,.35-.43s.18-.48,.29-.83c.03-.08,.09-.13,.16-.16,.08-.02,.16-.03,.25-.01,.06,0,.13,.04,.2,.08,.07,.05,.1,.11,.09,.19l-.24,1.51c-.02,.11-.06,.18-.11,.21-.05,.03-.13,.04-.23,.04h-3.96c-.24,0-.47,0-.7,0s-.47,.01-.74,.03Z"/></g></svg>