<?xml version="1.0" encoding="UTF-8"?><svg id="a" xmlns="http://www.w3.org/2000/svg" viewBox="0 0 176.57 176.59"><path d="M172.54,153.02l-41.28-41.28c9.39-13.94,14.02-31.35,11.54-49.9C138.57,30.28,112.71,4.6,81.12,.6,34.15-5.35-5.35,34.14,.59,81.11c4,31.6,29.69,57.49,61.25,61.7,18.55,2.48,35.97-2.15,49.9-11.54l41.28,41.28c5.39,5.39,14.12,5.39,19.51,0,5.38-5.39,5.38-14.15,0-19.53h.01ZM27.28,71.73c0-24.34,19.8-44.14,44.14-44.14s44.14,19.8,44.14,44.14-19.8,44.14-44.14,44.14-44.14-19.8-44.14-44.14Z"/></svg>