<?xml version="1.0" encoding="UTF-8"?><svg id="a" xmlns="http://www.w3.org/2000/svg" viewBox="0 0 182 202"><defs><style>.b{fill:#816ea6;}</style></defs><path class="b" d="M175.54,165.97l-41.28-41.28c9.39-13.94,14.02-31.35,11.54-49.9-4.23-31.56-30.09-57.24-61.68-61.24C37.15,7.6-2.35,47.09,3.59,94.06c4,31.6,29.69,57.49,61.25,61.7,18.55,2.48,35.97-2.15,49.9-11.54l41.28,41.28c5.39,5.39,14.12,5.39,19.51,0,5.38-5.39,5.38-14.15,0-19.53ZM30.28,84.68c0-24.34,19.8-44.14,44.14-44.14s44.14,19.8,44.14,44.14-19.8,44.14-44.14,44.14-44.14-19.8-44.14-44.14Z"/></svg>